<svg width="363" height="453" viewBox="0 0 363 453" fill="none" xmlns="http://www.w3.org/2000/svg">
<g filter="url(#filter0_d_2_8)">
<path d="M4 263.16C4.08 261.74 4.23 260.31 4.24 258.89C4.47 224.34 4.67 189.78 4.93 155.23C4.97 149.18 5.23 143.14 5.4 137.09C5.59 130.18 10.58 124.21 17.48 123.5C24.69 122.76 31.95 122.4 39.2 122.31C58.48 122.08 77.76 121.99 97.05 122C141.14 122.04 185.22 122.12 229.31 122.31C237.92 122.35 246.54 122.77 255.13 123.41C263.25 124.01 267.8 128.1 268.87 136.22C269.82 143.46 270 150.82 270.26 158.14C270.47 164.02 270.3 169.92 270.3 176.06C274.36 176.83 278.33 177.65 282.32 178.32C298.06 180.96 312.36 186.72 324.49 197.38C342.2 212.96 353.11 232.24 356.62 255.64C358.86 270.59 359.35 285.56 357.53 300.61C352.69 340.42 320.13 375.67 281.02 383.3C278.2 383.85 275.37 384.43 272.52 384.67C270.57 384.84 270.28 385.67 270.27 387.39C270.21 398.73 270.21 410.07 269.84 421.41C269.71 425.52 269.03 429.71 267.89 433.66C266.38 438.9 262.59 442.17 256.99 442.41C240.07 443.11 223.15 443.99 206.22 444.12C166.67 444.44 127.12 444.52 87.58 444.4C67.47 444.34 47.36 443.77 27.26 443.19C22.33 443.05 17.4 442.14 12.54 441.21C9.56 440.64 7.62 438.32 7.21 435.35C6.29 428.71 5.21 422.03 5.03 415.35C4.54 397.82 4.5 380.27 4.26 362.73C4.24 361.31 4.1 359.88 4.02 358.46C4 326.68 4 294.92 4 263.16ZM260.28 283.26C260.26 283.26 260.24 283.26 260.22 283.26C260.22 243.64 260.29 204.01 260.17 164.39C260.14 155.56 259.57 146.72 259.05 137.89C258.81 133.94 258 133.27 253.98 132.96C248.55 132.55 243.11 132.1 237.68 132.08C177.64 131.95 117.59 131.83 57.55 131.88C44.55 131.89 31.55 132.58 18.56 132.9C16.36 132.96 15.32 133.76 15.26 136.12C15.08 143.45 14.52 150.77 14.47 158.1C14.22 197.65 13.96 237.19 13.94 276.74C13.91 321.43 14.1 366.12 14.29 410.81C14.32 417.15 14.92 423.48 15.28 429.82C15.42 432.27 16.69 433.39 19.22 433.44C34.26 433.75 49.3 434.41 64.35 434.45C115.78 434.59 167.2 434.6 218.63 434.48C230.42 434.45 242.2 433.81 253.98 433.27C258.06 433.08 258.83 432.34 259.04 428.38C259.58 418.19 260.19 407.99 260.22 397.8C260.36 359.63 260.28 321.44 260.28 283.26ZM270.34 343.65C270.34 351.67 270.29 359.98 270.36 368.29C270.41 375.25 271.36 376.13 278.12 374.59C300.25 369.56 318.61 358.55 331.67 339.67C342.15 324.51 348.13 307.7 349.47 289.24C350.83 270.63 348.88 252.59 341.17 235.4C329.25 208.83 309.48 192.12 280.44 187.1C277.16 186.53 273.78 186.5 270.44 186.22C270.44 196.27 270.44 205.76 270.44 214.74C274.64 215.6 278.81 215.86 282.49 217.33C294.04 221.93 303.2 229.77 310.07 240.05C316.65 249.9 319.57 261.03 319.89 272.83C320.26 286.27 319.93 299.53 313.02 311.79C306.48 323.4 298.39 333.35 285.95 338.82C281.11 340.95 275.78 342.01 270.34 343.65ZM270.42 223.58C270.37 224.21 270.31 224.58 270.31 224.95C270.35 256.23 270.35 287.51 270.48 318.79C270.5 322.46 271 326.18 271.69 329.79C272.34 333.16 273.97 333.76 277.16 332.59C295.42 325.86 305.27 311.7 310.15 293.87C312.77 284.27 311.63 274.18 309.76 264.4C307.19 250.92 300.94 239.55 289.45 231.57C283.77 227.63 277.64 224.6 270.42 223.58ZM175.07 0C174.01 1.49 172.81 2.91 171.93 4.5C169.87 8.24 168.28 12.28 165.91 15.81C162.97 20.19 159.39 24.12 156.18 28.32C152.68 32.9 150.07 38 149.8 43.8C149.53 49.43 149.57 55.13 150.23 60.72C150.98 67.07 153.11 73.15 157.59 77.94C159.1 79.55 161.32 80.85 163.45 81.44C166.7 82.33 168.92 79.64 167.81 76.44C167.33 75.06 166.51 73.67 165.5 72.61C157.45 64.15 154.35 47.64 163.09 35.02C165.54 31.49 168.33 28.2 170.97 24.8C174.36 20.45 177.84 16.13 179.31 10.67C180.34 6.84 180.62 3.07 177.33 0.01C176.58 0 175.83 0 175.07 0ZM86.29 62.46C87.39 67.66 89.3 72.6 92.61 76.86C94.36 79.11 96.4 81.19 99.36 81.42C100.74 81.53 102.71 80.96 103.49 79.97C104.17 79.11 103.68 77.21 103.44 75.81C103.33 75.15 102.68 74.49 102.11 74.02C98.64 71.11 96.86 67.23 95.88 62.97C93.15 51.09 93.78 39.84 102.28 30.11C104.07 28.06 105.77 25.93 107.46 23.8C111.38 18.87 115.07 13.8 116.66 7.58C116.99 6.28 116.98 4.64 116.47 3.44C115.62 1.43 113.73 0.47 111.51 0.48C109.44 0.49 108.61 2.1 108.18 3.69C106.1 11.39 101.29 17.36 96.17 23.17C95.27 24.19 94.43 25.26 93.61 26.35C88.22 33.45 84.72 41.24 84.48 50.39C85.07 54.41 85.44 58.49 86.29 62.46ZM115.09 347.21C116.26 347.04 117.61 345.95 118.27 344.89C119.46 342.99 120.29 340.84 121.1 338.73C132.59 308.79 144.14 278.87 155.49 248.88C159.36 238.65 162.74 228.23 166.28 217.88C167.11 215.44 166.39 213.73 164.5 212.92C162.47 212.06 160.38 212.94 159.24 215.17C158.83 215.98 158.49 216.82 158.16 217.66C152.97 231.1 147.67 244.51 142.61 258.01C133.19 283.17 123.89 308.37 114.61 333.58C113.47 336.68 112.78 339.95 111.88 343.13C112.09 344.91 113.66 347.42 115.09 347.21ZM86.25 246.65C81.82 250.65 77.35 254.61 73.13 258.83C69.3 262.67 65.58 266.66 62.17 270.88C57.67 276.46 57.67 283.51 62.58 289.32C70.64 298.87 79.33 307.77 88.85 315.86C89.82 316.69 90.84 317.74 92 318C93.41 318.31 95.13 318.21 96.4 317.63C96.86 317.42 96.79 315.12 96.33 314.05C95.63 312.42 94.53 310.89 93.32 309.56C88.05 303.74 82.59 298.09 77.37 292.22C74.62 289.13 72.14 285.79 69.7 282.45C68.27 280.5 68.35 278.27 69.79 276.31C71.31 274.25 72.85 272.16 74.65 270.36C79.52 265.51 84.62 260.89 89.48 256.04C92.47 253.06 95.28 249.89 97.97 246.63C98.58 245.89 98.77 244.29 98.39 243.41C98.01 242.52 96.68 242.04 96.08 241.61C91.75 242.15 88.9 244.26 86.25 246.65ZM215.65 270.8C209.63 264.33 203.62 257.83 197.35 251.6C193.99 248.26 190.2 245.33 186.42 242.46C185.48 241.75 183.82 242.01 182.48 241.83C182.33 243.4 182.05 244.97 182.08 246.53C182.09 247.19 182.68 247.91 183.15 248.49C185.3 251.12 187.37 253.83 189.69 256.3C195.58 262.59 201.64 268.72 207.53 275.01C210.46 278.13 210.68 280.45 208.15 283.93C206.07 286.78 203.67 289.45 201.14 291.92C195.29 297.61 189.21 303.07 183.35 308.75C181.8 310.25 180.49 312.09 179.41 313.97C178.15 316.17 179.13 318.09 181.66 318C183.38 317.94 185.27 317.03 186.73 316.01C196.11 309.45 204.59 301.83 212.76 293.83C216.98 289.7 218.5 284.75 218.59 279.11C218.86 275.91 217.78 273.09 215.65 270.8Z" fill="#A9D9D0"/>
</g>
<defs>
<filter id="filter0_d_2_8" x="0" y="0" width="362.642" height="452.453" filterUnits="userSpaceOnUse" color-interpolation-filters="sRGB">
<feFlood flood-opacity="0" result="BackgroundImageFix"/>
<feColorMatrix in="SourceAlpha" type="matrix" values="0 0 0 0 0 0 0 0 0 0 0 0 0 0 0 0 0 0 127 0" result="hardAlpha"/>
<feOffset dy="4"/>
<feGaussianBlur stdDeviation="2"/>
<feComposite in2="hardAlpha" operator="out"/>
<feColorMatrix type="matrix" values="0 0 0 0 0 0 0 0 0 0 0 0 0 0 0 0 0 0 0.25 0"/>
<feBlend mode="normal" in2="BackgroundImageFix" result="effect1_dropShadow_2_8"/>
<feBlend mode="normal" in="SourceGraphic" in2="effect1_dropShadow_2_8" result="shape"/>
</filter>
</defs>
</svg>
